<svg width="245" height="73" viewBox="0 0 245 73" fill="none" xmlns="http://www.w3.org/2000/svg">
<path fill-rule="evenodd" clip-rule="evenodd" d="M0.998047 17.1385C0.998047 8.22328 8.22524 0.996094 17.1404 0.996094H79.2056C88.1208 0.996094 95.348 8.22328 95.348 17.1385C95.348 26.0537 88.1208 33.2809 79.2056 33.2809H54.8781C52.8264 33.2809 51.1631 34.9441 51.1631 36.9959C51.1631 39.0477 52.8264 40.7109 54.8781 40.7109H228.039C236.954 40.7109 244.181 47.9381 244.181 56.8533C244.181 65.7685 236.954 72.9957 228.039 72.9957H17.14C8.22476 72.9957 0.997559 65.7685 0.997559 56.8533C0.997559 47.9381 8.22475 40.7109 17.1399 40.7109H41.4681C43.5199 40.7109 45.1832 39.0477 45.1832 36.9959C45.1832 34.9441 43.5199 33.2809 41.4681 33.2809H17.1404C8.22525 33.2809 0.998047 26.0537 0.998047 17.1385ZM97.4335 63.8285C96.2928 63.8285 95.4006 63.6694 94.7591 63.3473C94.1155 63.0273 93.6664 62.5482 93.4098 61.906C93.1532 61.2659 93.0249 60.4746 93.0249 59.5283V54.1746C93.0249 52.6378 93.3697 51.5046 94.0614 50.777C94.7511 50.0494 95.8758 49.6836 97.4355 49.6836H104.687C105.796 49.6836 106.642 49.7432 107.229 49.8645C107.814 49.9838 108.109 50.109 108.109 50.2363L107.628 52.2283C107.355 52.1806 106.547 52.1289 105.206 52.0712C103.865 52.0156 101.918 51.9877 99.3641 51.9877H98.1352C96.8501 51.9877 96.2086 52.5563 96.2086 53.6935V59.8166C96.2086 60.3613 96.3489 60.7808 96.6296 61.077C96.9102 61.3732 97.4135 61.5203 98.1352 61.5203H99.1236C101.79 61.5203 103.859 61.4925 105.328 61.4368C106.798 61.3812 107.71 61.3215 108.063 61.2559L109.051 62.8404C109.051 62.9199 108.919 63.0412 108.654 63.2002C108.39 63.3613 107.903 63.5044 107.197 63.6316C106.489 63.7589 105.471 63.8245 104.138 63.8245H97.4395L97.4335 63.8285ZM43.704 63.8284V51.6318L43.4634 49.6875H54.137C55.1655 49.6875 55.9715 49.8247 56.5589 50.095C57.1443 50.3674 57.5793 50.7233 57.86 51.1626C58.1407 51.604 58.3211 52.0712 58.4013 52.5682C58.4815 53.0652 58.5216 53.5363 58.5216 53.9856V55.4031C58.5216 55.7709 58.4655 56.1844 58.3532 56.6397C58.2409 57.0949 58.0324 57.5363 57.7277 57.9597C57.423 58.3832 56.9799 58.737 56.4025 59.0154C55.8251 59.2957 55.0693 59.4348 54.137 59.4348H51.6791C50.6667 59.4348 49.7224 59.411 48.8483 59.3633C47.9722 59.3155 47.3186 59.2758 46.8856 59.244V63.8304H43.706L43.704 63.8284ZM46.8836 57.1287H53.4374C54.1611 57.1287 54.6583 56.9518 54.931 56.5999C55.2036 56.248 55.3399 55.8246 55.3399 55.3276V53.8147C55.3399 53.3017 55.2036 52.8703 54.931 52.5185C54.6583 52.1666 54.1671 51.9896 53.4614 51.9896H46.8836V57.1287ZM20.7173 63.826C19.6247 63.826 18.8227 63.7783 18.3075 63.6829C17.7943 63.5875 17.5356 63.4742 17.5356 63.3469L18.5 61.2575C18.8689 61.3211 19.7891 61.3808 21.2586 61.4384C22.7281 61.4941 24.749 61.5219 27.3192 61.5219H27.7763C28.4659 61.5219 28.9571 61.3987 29.2458 61.1502C29.5345 60.9016 29.6788 60.4822 29.6788 59.8897V59.4086C29.6788 58.848 29.5626 58.4484 29.33 58.2079C29.0974 57.9673 28.5782 57.848 27.7763 57.848H22.1868C20.5649 57.848 19.3841 57.5478 18.6443 56.9474C17.9045 56.3471 17.5356 55.367 17.5356 54.0052V53.6215C17.5356 52.9177 17.668 52.2696 17.9326 51.6772C18.1972 51.0847 18.6503 50.6096 19.2939 50.2478C19.9354 49.8879 20.8195 49.707 21.9442 49.707H28.498C29.5906 49.707 30.4728 49.7627 31.1484 49.876C31.824 49.9873 32.1608 50.1086 32.1608 50.2358L31.6797 52.2537C31.2626 52.206 30.3144 52.1543 28.8368 52.0966C27.3593 52.041 25.3745 52.0131 22.8845 52.0131L22.6199 51.9893C21.8801 51.9893 21.3829 52.1384 21.1263 52.4326C20.8697 52.7288 20.7313 53.1006 20.7173 53.5499V53.9574C20.7173 54.4863 20.8657 54.8819 21.1624 55.1463C21.4591 55.4107 21.9543 55.5419 22.6439 55.5419H27.9928C29.0213 55.5419 29.8974 55.6453 30.6191 55.854C31.3428 56.0628 31.8962 56.4425 32.2811 56.9952C32.666 57.5478 32.8585 58.3609 32.8585 59.4325V59.8162C32.8585 61.017 32.5497 61.9851 31.9303 62.7207C31.3108 63.4563 30.2402 63.826 28.7145 63.826H20.7173ZM72.8085 49.707L65.7496 63.826H69.266L70.8318 60.7764H79.4585L80.8799 63.826H84.5909L77.5559 49.707H72.8085ZM78.5684 58.4246H71.7039L75.0279 51.87H75.2684L78.5684 58.4246ZM118.685 49.707V63.826H131.841C132.901 63.826 133.649 63.7982 134.082 63.7425C134.515 63.6849 134.732 63.6253 134.732 63.5616L133.767 61.5199H121.865V57.7029H130.876V55.3252H121.865V52.0112H133.671V49.707H118.685ZM149.212 63.8284L149.188 51.9916H142.923V49.6875H158.681V51.9916H152.392V63.8284H149.212ZM168.318 49.707V63.826H171.497V49.707H168.318ZM182.823 63.828V51.6314L182.583 49.7109H186.245L191.69 59.3151L197.328 49.7109H200.58V63.83H197.4V54.8739H197.135L196.195 56.9633L193.16 62.3906H190.245L187.21 56.9633L186.245 54.8739H186.005V63.83H182.825L182.823 63.828ZM211.664 49.707V63.826H224.819C225.88 63.826 226.628 63.7982 227.061 63.7425C227.494 63.6849 227.71 63.6253 227.71 63.5616L226.746 61.5199H214.843V57.7029H223.855V55.3252H214.843V52.0112H226.65V49.707H211.664ZM22.1194 13.3477V16.7618V16.7637L17.5287 18.6018L22.1194 20.4491V23.8669L13.1635 20.3593H13.145V16.8571H13.1635L22.1194 13.3477ZM74.2958 23.6838V20.2714L78.8828 18.4352L74.2958 16.5989V13.1847L83.2388 16.6905H83.261V20.1963H83.2388L74.2958 23.6838ZM70.4555 8.35938L65.1958 26.1413H68.3191L73.5788 8.35938H70.4555ZM36.5813 16.4774C36.6368 15.0865 36.1692 13.7303 35.2803 12.7022H35.2821C34.8423 12.2166 34.3082 11.8354 33.7168 11.5843C33.1254 11.3332 32.4915 11.2196 31.8539 11.2471C31.1701 11.2159 30.4881 11.3332 29.8487 11.5898C29.2092 11.8464 28.6252 12.2386 28.1355 12.7407V11.6173H25.0122V24.0517H28.1355V18.5446C28.1355 15.6876 29.1131 14.2599 31.0684 14.2599C31.3955 14.2453 31.7227 14.3094 32.0239 14.4469C32.3233 14.5843 32.5913 14.7932 32.8056 15.0553C33.2621 15.6546 33.495 16.4078 33.458 17.1738V24.0517H36.5813V16.4774ZM40.5562 6.44531V24.2273H43.6794V6.44531H40.5562ZM58.7213 23.5735H61.3253L65.7072 11.1172H62.3695L59.9097 18.5906L57.3759 11.1172H54.9401L52.4064 18.5668L49.9466 11.1172H46.6089L50.987 23.5735H53.5892L56.1673 16.2485L58.7213 23.5735Z" fill="url(#paint0_linear_252_393)"/>
<defs>
<linearGradient id="paint0_linear_252_393" x1="20.5061" y1="0.996094" x2="304.441" y2="90.1097" gradientUnits="userSpaceOnUse">
<stop offset="0.251308" stop-color="#996DFF"/>
<stop offset="0.623787" stop-color="#FF876E"/>
<stop offset="1" stop-color="#FFD072"/>
</linearGradient>
</defs>
</svg>
